# xmcd
#
# Track frame offsets:
#	150
#	15265
#	32786
#	66338
#	91732
#	102761
#	127838
#	145086
#	168415
#	182854
#	199072
#	233336
#	250509
#	284461
#	304566
#
# Disc length: 4147 seconds
#
# Revision: 2
# Processed by: cddbd v1.5PL3 Copyright (c) Steve Scherf et al.
# Submitted via: EasyCDDAExtractor 6.5.0.1
#
DISCID=b710310f
DTITLE=Dr Ika's Blues
DYEAR=2001
DGENRE=Blues
TTITLE0=Rainy morning
TTITLE1=Libido blues
TTITLE2=Loser
TTITLE3=Seperate ways
TTITLE4=Grapevine
TTITLE5=Old clock
TTITLE6=Crook FM
TTITLE7=Do you want to have sex
TTITLE8=Dusty road
TTITLE9=My li'l garden
TTITLE10=Immigration blues
TTITLE11=Ain't no blues!
TTITLE12=Bad from the start
TTITLE13=Crossroad blues
TTITLE14=Rainy evaning
EXTD=
EXTT0=
EXTT1=
EXTT2=
EXTT3=
EXTT4=
EXTT5=
EXTT6=
EXTT7=
EXTT8=
EXTT9=
EXTT10=
EXTT11=
EXTT12=
EXTT13=
EXTT14=
PLAYORDER=
